<svg id="Layer_1" enable-background="new 0 0 512 512" height="512" viewBox="0 0 512 512" width="512" xmlns="http://www.w3.org/2000/svg"><g><g><path clip-rule="evenodd" d="m267.211 271.066c11.678-10.403 18.991-25.568 18.991-42.405 0-31.407-25.454-56.89-56.86-56.89s-56.86 25.483-56.86 56.89c0 16.837 7.341 32.003 18.991 42.405 10.063 8.986 23.328 14.456 37.869 14.456 14.54 0 27.806-5.47 37.869-14.456z" fill="#ffdcd5" fill-rule="evenodd"/></g><g><path clip-rule="evenodd" d="m320.301 332.803c0-31.181-23.13-57.174-53.09-61.737-10.063 8.986-23.328 14.456-37.869 14.456s-27.807-5.471-37.869-14.456c-29.932 4.564-53.09 30.557-53.09 61.737v41.102h181.919v-41.102z" fill="#ff7d97" fill-rule="evenodd"/></g><g><path clip-rule="evenodd" d="m191.472 271.066c-11.65-10.403-18.991-25.568-18.991-42.405 0-31.407 25.454-56.89 56.86-56.89s56.86 25.483 56.86 56.89c0 16.837-7.313 32.003-18.991 42.405 29.961 4.564 53.09 30.557 53.09 61.737v41.102h-181.918v-41.102c0-31.18 23.158-57.173 53.09-61.737zm257.232 124.892v-195.105c-14.343 7.738-30.783 12.16-48.215 12.16-56.067 0-101.504-45.467-101.504-101.507 0-1.701.028-3.373.113-5.046h-256.806c-17.744 0-32.285 14.541-32.285 32.286v257.211c0 17.745 14.513 32.286 32.285 32.286h118.624l68.425 73.757 68.425-73.756h118.653c17.744 0 32.285-14.513 32.285-32.286z" fill="#ccf5fc" fill-rule="evenodd"/></g><g><path clip-rule="evenodd" d="m448.704 200.853c31.718-17.178 53.289-50.739 53.289-89.346 0-56.069-45.465-101.507-101.504-101.507-54.366 0-98.755 42.746-101.391 96.461-.085 1.672-.113 3.345-.113 5.046 0 56.04 45.437 101.507 101.504 101.507 17.433-.001 33.873-4.423 48.215-12.161z" fill="#ffcd69" fill-rule="evenodd"/></g><g><path d="m511.993 111.507c0-61.486-50.02-111.507-111.504-111.507-56.381 0-103.116 42.066-110.485 96.461h-247.712c-23.316 0-42.285 18.97-42.285 42.286v89.205c0 5.522 4.477 10 10 10s10-4.478 10-10v-89.205c0-12.289 9.997-22.286 22.285-22.286h246.809c2.602 59.195 51.565 106.553 111.388 106.553 13.418 0 26.29-2.383 38.215-6.747v179.692c0 12.289-9.997 22.286-22.285 22.286h-118.652c-2.782 0-5.438 1.159-7.331 3.199l-61.094 65.854-61.094-65.854c-1.892-2.04-4.549-3.199-7.331-3.199h-118.625c-12.288 0-22.285-9.997-22.285-22.286v-78.206c0-5.522-4.477-10-10-10s-10 4.478-10 10v78.206c0 23.316 18.969 42.286 42.285 42.286h114.261l65.458 70.557c1.892 2.04 4.549 3.199 7.331 3.199s5.439-1.159 7.331-3.199l65.458-70.557h114.289c23.316 0 42.285-18.97 42.285-42.286v-189.386c31.941-19.633 53.288-54.902 53.288-95.066zm-111.504 91.507c-50.455 0-91.504-41.05-91.504-91.507s41.049-91.507 91.504-91.507 91.504 41.05 91.504 91.507-41.049 91.507-91.504 91.507z"/><path d="m442.837 101.507h-32.348v-32.377c0-5.522-4.478-10-10-10s-10 4.478-10 10v32.377h-32.376c-5.522 0-10 4.478-10 10s4.478 10 10 10h32.376v32.349c0 5.522 4.478 10 10 10s10-4.478 10-10v-32.349h32.348c5.522 0 10-4.478 10-10s-4.478-10-10-10z"/><path d="m128.382 332.804v41.102c0 5.522 4.477 10 10 10h181.919c5.522 0 10-4.478 10-10v-41.102c0-29.773-18.612-56.217-45.315-67.126 7.079-10.606 11.216-23.336 11.216-37.017 0-36.883-29.994-66.89-66.861-66.89s-66.86 30.007-66.86 66.89c0 13.682 4.138 26.412 11.217 37.019-26.703 10.911-45.316 37.354-45.316 67.124zm100.959-151.033c25.839 0 46.861 21.034 46.861 46.89 0 25.84-21.021 46.862-46.861 46.862-25.839 0-46.86-21.022-46.86-46.862 0-25.856 21.021-46.89 46.86-46.89zm-40.549 100.002c11.257 8.615 25.312 13.75 40.55 13.75s29.293-5.134 40.55-13.75c23.311 5.528 40.41 26.75 40.41 51.031v31.102h-161.92v-31.102c0-24.278 17.099-45.5 40.41-51.031z"/><path d="m10.007 282.852c5.523 0 10-4.478 10-10v-.057c0-5.522-4.477-9.972-10-9.972s-10 4.506-10 10.028 4.477 10.001 10 10.001z"/></g></g></svg>