<svg height="512" viewBox="0 0 64 64" width="512" xmlns="http://www.w3.org/2000/svg"><g id="computer"><path d="m61 17v28h-58v-28a2.006 2.006 0 0 1 2-2h54a2.006 2.006 0 0 1 2 2z" fill="#57a4ff"/><path d="m61 17v28h-58v-4h42a12 12 0 0 0 12-12v-12a2.006 2.006 0 0 0 -2-2h4a2.006 2.006 0 0 1 2 2z" fill="#2488ff"/><path d="m53 27h4v14h-4z" fill="#ff7956"/><path d="m45 29h4v12h-4z" fill="#ffde55"/><path d="m44 61h-24l3-4h18z" fill="#c6c5ca"/><path d="m37 33h4v8h-4z" fill="#00ddc2"/><path d="m39.2 6.6a8.964 8.964 0 0 1 1.8 5.4 8.262 8.262 0 0 1 -.06 1h-8.94v-10a8.992 8.992 0 0 1 7.2 3.6z" fill="#ff7956"/><path d="m25.82 18.54a9.047 9.047 0 0 1 -2.82-6.54 9 9 0 0 1 9-9v10h8.94a8.431 8.431 0 0 1 -.46 2 8.993 8.993 0 0 1 -14.66 3.54z" fill="#ffde55"/><path d="m40.94 16a8.431 8.431 0 0 1 -.46 2 8.993 8.993 0 0 1 -14.66 3.54 9.047 9.047 0 0 1 -2.82-6.54 9.294 9.294 0 0 1 .12-1.5 9.186 9.186 0 0 0 .4 1.5 8.837 8.837 0 0 0 2.3 3.54 8.985 8.985 0 0 0 14.23-2.54z" fill="#2488ff"/><path d="m39 57h-14l1-6h12z" fill="#57a4ff"/><path d="m61 45v4a2.006 2.006 0 0 1 -2 2h-54a2.006 2.006 0 0 1 -2-2v-4z" fill="#c6c5ca"/><path d="m26 51h12v3h-12z" fill="#2488ff"/><path d="m12 24h5a5 5 0 1 1 -5-5z" fill="#ffde55"/><path d="m37 33h4v8h-4z" fill="#00d7df"/><path d="m53 27h4v2h-4z" fill="#ff5023"/><path d="m45 29h4v2h-4z" fill="#ebbf00"/><path d="m37 33h4v2h-4z" fill="#009698"/><path d="m59 14h-17.2a10.2 10.2 0 0 0 .2-2 9.964 9.964 0 0 0 -1.45-5.16l3.78-2.84h7.67v-2h-8a.984.984 0 0 0 -.6.2l-4.05 3.04a9.957 9.957 0 0 0 -14.7 0l-4.05-3.04a.984.984 0 0 0 -.6-.2h-8v2h7.67l3.78 2.84a9.964 9.964 0 0 0 -1.45 5.16 10.2 10.2 0 0 0 .2 2h-17.2a3.009 3.009 0 0 0 -3 3v32a3.009 3.009 0 0 0 3 3h20v4h-3a1.014 1.014 0 0 0 -.8.4l-3 4a1 1 0 0 0 .8 1.6h26a1 1 0 0 0 .8-1.6l-3-4a1.014 1.014 0 0 0 -.8-.4h-3v-4h20a3.009 3.009 0 0 0 3-3v-32a3.009 3.009 0 0 0 -3-3zm-26-9.93a7.978 7.978 0 0 1 4.74 2.37l-2.34 1.76 1.2 1.6 2.34-1.76a7.945 7.945 0 0 1 1.06 3.96h-7zm-7.94 3.97 2.34 1.76 1.2-1.6-2.34-1.76a7.978 7.978 0 0 1 4.74-2.37v8.93a1 1 0 0 0 1 1h7.74a7.995 7.995 0 1 1 -14.68-5.96zm16.44 49.96 1.5 2h-22l1.5-2zm-14.5-2v-4h10v4zm33-7a1 1 0 0 1 -1 1h-54a1 1 0 0 1 -1-1v-3h56zm0-5h-56v-27a1 1 0 0 1 1-1h17.84a9.992 9.992 0 0 0 18.32 0h17.84a1 1 0 0 1 1 1z"/><path d="m54 2h4v2h-4z"/><path d="m44 6h2v2h-2z"/><path d="m48 6h10v2h-10z"/><path d="m44 10h8v2h-8z"/><path d="m54 10h4v2h-4z"/><path d="m6 2h4v2h-4z"/><path d="m18 6h2v2h-2z"/><path d="m6 6h10v2h-10z"/><path d="m12 10h8v2h-8z"/><path d="m6 10h4v2h-4z"/><path d="m6 32h5v2h-5z"/><path d="m13 32h19v2h-19z"/><path d="m6 36h16v2h-16z"/><path d="m24 36h8v2h-8z"/><path d="m6 40h10v2h-10z"/><path d="m18 40h14v2h-14z"/><path d="m37 42h4a1 1 0 0 0 1-1v-8a1 1 0 0 0 -1-1h-4a1 1 0 0 0 -1 1v8a1 1 0 0 0 1 1zm1-8h2v6h-2z"/><path d="m49 28h-4a1 1 0 0 0 -1 1v12a1 1 0 0 0 1 1h4a1 1 0 0 0 1-1v-12a1 1 0 0 0 -1-1zm-1 12h-2v-10h2z"/><path d="m57 26h-4a1 1 0 0 0 -1 1v14a1 1 0 0 0 1 1h4a1 1 0 0 0 1-1v-14a1 1 0 0 0 -1-1zm-1 14h-2v-12h2z"/><path d="m12 30a6.006 6.006 0 0 0 6-6 1 1 0 0 0 -1-1h-4v-4a1 1 0 0 0 -1-1 6 6 0 0 0 0 12zm-1-9.874v3.874a1 1 0 0 0 1 1h3.873a4 4 0 1 1 -4.873-4.874z"/><path d="m20 24h2v2h-2z"/><path d="m24 24h8v2h-8z"/><path d="m20 28h12v2h-12z"/><path d="m41.9 29.447 1.718-3.447h5.382a1 1 0 0 0 .769-.36l4.7-5.64h3.531v-2h-4a1 1 0 0 0 -.769.36l-4.7 5.64h-5.531a1 1 0 0 0 -.9.553l-1.718 3.447h-4.382v2h5a1 1 0 0 0 .9-.553z"/></g></svg>