<svg height="512pt" viewBox="-58 0 511 512" width="512pt" xmlns="http://www.w3.org/2000/svg"><g fill-rule="evenodd"><path d="m334.652344 7.558594c-101.660156 0-203.289063 0-304.949219 0-11.914063 0-21.644531 9.691406-21.644531 21.535156v380.71875c0 11.847656 9.730468 21.539062 21.644531 21.539062h22.1875l304.410156-351.867187v-50.390625c0-11.84375-9.734375-21.535156-21.648437-21.535156zm0 0" fill="#c4cccf"/><path d="m307.980469 46.183594h-235.261719c-11.464844 0-20.828125 9.351562-20.828125 20.800781v367.796875c0 11.421875 9.363281 20.804688 20.828125 20.804688h293.398438c11.433593 0 20.824218-9.382813 20.824218-20.804688v-294.339844c0-2.605468 0-4.988281-.027344-7.195312zm0 0" fill="#eceff1"/><path d="m307.980469 46.183594-.054688 66.257812c0 11.449219 9.390625 20.804688 20.851563 20.804688h58.136718c-.285156-17.34375-2.269531-23.011719-16.511718-38.488282l-14.101563-15.273437-12.964843-14.085937c-13.761719-14.933594-15.011719-19.214844-35.355469-19.214844zm0 0" fill="#90a4ae"/><path d="m356.355469 434.78125c0 11.394531-9.363281 20.746094-20.765625 20.804688h30.527344c11.433593 0 20.824218-9.382813 20.824218-20.804688v-294.339844c0-2.605468 0-4.988281-.027344-7.195312h-30.613281c1.53125 100.292968.054688 201.125.054688 301.535156zm0 0" fill="#c4cccf"/><path d="m191.570312 504.441406c-5.363281 0-9.761718-4.050781-9.761718-9.011718v-66.796876h-13.136719c-31.265625-1.53125-31.945313-26.214843-19.035156-42.792968l12.765625-16.410156 31.835937-40.863282c14.441407-17.542968 37.761719-17.542968 50.332031 0l31.832032 40.863282 12.796875 16.410156c12.910156 16.578125 12.199219 41.261718-19.066407 42.792968h-13.136718v66.796876c0 4.960937-4.367188 9.011718-9.730469 9.011718zm0 0" fill="#f55a8e"/><path d="m267.210938 400.378906-12.769532-16.410156-11.320312-14.539062-20.511719-26.328126c-7.519531-10.457031-18.839844-14.679687-29.820313-12.667968l1.445313-1.871094c14.445313-17.539062 37.765625-17.539062 50.335937 0l31.832032 40.867188 12.796875 16.410156c12.371093 15.871094 12.257812 39.164062-15.234375 42.480468 2.976562-8.585937-.058594-19.355468-6.753906-27.941406zm0 0" fill="#ba4583"/></g><path d="m180.476562 222.410156h-66.535156c-4.171875 0-7.554687 3.386719-7.554687 7.558594 0 4.175781 3.382812 7.558594 7.554687 7.558594h66.535156c4.171876 0 7.554688-3.382813 7.554688-7.558594 0-4.171875-3.382812-7.558594-7.554688-7.558594zm0 0"/><path d="m303.46875 222.410156h-88.320312c-4.175782 0-7.558594 3.386719-7.558594 7.558594 0 4.175781 3.382812 7.558594 7.558594 7.558594h88.320312c4.175781 0 7.558594-3.382813 7.558594-7.558594 0-4.171875-3.382813-7.558594-7.558594-7.558594zm0 0"/><path d="m303.46875 174.515625h-189.527344c-4.171875 0-7.554687 3.382813-7.554687 7.558594 0 4.171875 3.382812 7.558593 7.554687 7.558593h189.527344c4.175781 0 7.558594-3.386718 7.558594-7.558593 0-4.175781-3.382813-7.558594-7.558594-7.558594zm0 0"/><path d="m113.941406 141.765625h120.582032c4.175781 0 7.558593-3.382813 7.558593-7.558594 0-4.171875-3.382812-7.554687-7.558593-7.554687h-120.582032c-4.171875 0-7.554687 3.382812-7.554687 7.554687 0 4.175781 3.382812 7.558594 7.554687 7.558594zm0 0"/><path d="m394.457031 133.492188c.003907-.085938.011719-.164063.011719-.25 0-.167969-.011719-.332032-.023438-.5-.339843-18.40625-2.71875-25.988282-18.488281-43.105469l-12.101562-13.125v-47.417969c0-16.042969-13.101563-29.09375-29.203125-29.09375h-304.949219c-16.101563 0-29.203125 13.050781-29.203125 29.09375v380.71875c0 16.046875 13.101562 29.097656 29.203125 29.097656h14.9375c2.007813 13.683594 13.835937 24.230469 28.078125 24.230469h101.539062v32.292969c0 9.128906 7.765626 16.566406 17.3125 16.566406h55.695313c9.535156 0 17.285156-7.4375 17.285156-16.566406v-32.292969h101.566407c15.648437 0 28.382812-12.726563 28.382812-28.363281v-294.332032c0-2.488281-.007812-4.792968-.042969-6.953124zm-43.417969-48.589844 13.808594 14.972656c10.429688 11.324219 13.375 15.980469 14.207032 25.8125h-50.277344c-7.332032 0-13.296875-5.941406-13.296875-13.238281l.050781-58.457031c7.976562.71875 10.328125 3.324218 17.9375 11.78125 1.308594 1.449218 2.726562 3.03125 4.308594 4.75l12.664062 13.734374c.1875.226563.386719.441407.597656.644532zm-94.046874 336.167968c-4.171876 0-7.550782 3.390626-7.550782 7.558594v66.804688c0 .671875-.949218 1.449218-2.175781 1.449218h-55.695313c-1.347656 0-2.207031-.859374-2.207031-1.449218v-66.804688c0-4.167968-3.378906-7.558594-7.550781-7.558594h-12.945312c-6.789063-.347656-15.425782-2.160156-18.433594-8.71875-2.628906-5.738281-.5625-14.527343 5.160156-21.875l44.535156-57.1875c5.636719-6.804687 13.164063-10.574218 20.691406-10.316406 6.898438.230469 13.15625 3.78125 17.605469 9.988282.0625.089843.121094.171874.179688.25l44.628906 57.265624c5.714844 7.339844 7.785156 16.128907 5.15625 21.867188-3.007813 6.558594-11.65625 8.378906-18.453125 8.726562zm122.394531 13.707032c0 7.308594-5.949219 13.246094-13.269531 13.246094h-101.566407v-11.835938h5.585938c.121093 0 .242187 0 .359375-.007812 20.996094-1.023438 28.820312-11.429688 31.632812-17.539063 5.078125-11.054687 2.40625-25.414063-6.96875-37.449219l-44.546875-57.15625c-7.140625-9.890625-17.804687-15.777344-29.28125-16.167968-12.296875-.410157-24.285156 5.378906-32.929687 15.898437-.042969.046875-.089844.097656-.132813.160156l-44.59375 57.273438c-9.378906 12.039062-12.058593 26.394531-6.980469 37.460937 2.800782 6.101563 10.628907 16.496094 31.613282 17.515625.121094.011719.238281.011719.371094.011719h5.578124v11.835938h-101.542968c-7.316406 0-13.265625-5.9375-13.265625-13.246094v-114.941406c0-4.171876-3.386719-7.558594-7.558594-7.558594-4.175781 0-7.554687 3.386718-7.554687 7.558594v103.960937h-14.632813c-7.769531 0-14.089844-6.273437-14.089844-13.984375v-380.71875c0-7.707031 6.320313-13.980469 14.089844-13.980469h304.949219c7.769531 0 14.089844 6.273438 14.089844 13.980469v31.019531c-1.476563-1.597656-2.808594-3.085937-4.027344-4.449219-11.378906-12.644531-16.359375-17.027343-36.6875-17.035156-.011719 0-.027344 0-.039063 0-.003906 0-.007812 0-.007812 0-.011719 0-.023438 0-.035157 0h-235.226562c-15.648438 0-28.382812 12.71875-28.382812 28.355469v218.246094c0 4.171875 3.378906 7.558593 7.558593 7.558593 4.167969 0 7.558594-3.386718 7.558594-7.558593v-218.246094c0-7.300781 5.945313-13.238281 13.265625-13.238281h227.703125l-.050781 58.695312c0 15.636719 12.742187 28.359375 28.410156 28.359375h50.605469zm0 0"/></svg>