<svg id="Capa_1" enable-background="new 0 0 512.003 512.003" height="512" viewBox="0 0 512.003 512.003" width="512" xmlns="http://www.w3.org/2000/svg"><g><path d="m392 512.002c24.813 0 45-20.187 45-45 0-19.458-10.486-27.421-32.01-67.501-5.753-9.962-20.198-10.013-25.979 0-21.622 40.262-32.01 48.06-32.01 67.501-.001 24.813 20.186 45 44.999 45zm0-75.005c11.974 21.818 15 23.318 15 30.005 0 8.271-6.729 15-15 15s-15-6.729-15-15c0-6.687 3.042-8.216 15-30.005z"/><path d="m308.708 450.418c7.41-3.705 10.413-12.715 6.708-20.125l-15-30c-3.705-7.409-12.716-10.413-20.125-6.708-7.41 3.705-10.413 12.715-6.708 20.125l15 30c3.706 7.411 12.717 10.412 20.125 6.708z"/><path d="m503.708 393.585c-7.408-3.704-16.42-.701-20.125 6.708l-15 30c-3.705 7.41-.701 16.42 6.708 20.125 7.419 3.71 16.425.691 20.125-6.708l15-30c3.705-7.41.702-16.42-6.708-20.125z"/><path d="m347 180.002h-62c-8.271 0-15-6.729-15-15v-30c0-8.284-6.716-15-15-15h-45v-60h32.58c6.192 17.459 22.865 30 42.42 30 24.813 0 45-20.187 45-45s-20.187-45-45-45c-19.555 0-36.228 12.541-42.42 30h-95.16c-6.192-17.459-22.865-30-42.42-30-24.813 0-45 20.187-45 45s20.187 45 45 45c19.555 0 36.228-12.541 42.42-30h32.58v60h-45c-8.284 0-15 6.716-15 15v30c0 8.271-6.729 15-15 15h-90c-8.284 0-15 6.716-15 15v90c0 8.284 6.716 15 15 15h106.979c40.911 39.918 105.027 40.019 146.042 0h48.979c8.271 0 15 6.729 15 15v30c0 8.284 6.716 15 15 15h90c8.284 0 15-6.716 15-15v-60c0-57.898-47.103-105-105-105zm-62-150c8.271 0 15 6.729 15 15s-6.729 15-15 15-15-6.729-15-15 6.729-15 15-15zm-180 30c-8.271 0-15-6.729-15-15s6.729-15 15-15 15 6.729 15 15-6.729 15-15 15zm317 270h-60v-15c0-24.813-20.187-45-45-45h-55.357c-4.25 0-8.3 1.803-11.145 4.96-29.926 33.218-80.713 33.615-110.997 0-2.844-3.157-6.895-4.96-11.145-4.96h-98.356v-60h75c24.813 0 45-20.187 45-45v-15h90v15c0 24.813 20.187 45 45 45h62c41.355 0 75 33.645 75 75z"/></g></svg>