<svg id="Layer_1" height="512" viewBox="0 0 512 512" width="512" xmlns="http://www.w3.org/2000/svg" data-name="Layer 1"><path d="m440.39 271.44v198.26a14 14 0 0 1 -14 14h-286.55a14 14 0 0 1 -14-14v-198.62h314.55z" fill="#5f6a89"/><path d="m43 216.71h25.19v54.42h-25.19z" fill="#81a5cb"/><path d="m97.23 226.79v31.2h-1.31-26.9-.83v-31.2h.83 26.9z" fill="#6d7486"/><path d="m408.18 175.77h-250.12a22.1 22.1 0 0 0 -22.1 22.1v13.4h294.31v-13.4a22.1 22.1 0 0 0 -22.09-22.1z" fill="#5f6a89"/><path d="m97.23 211.27h371.77v59.81h-371.77z" fill="#81a5cb"/><path d="m217.52 28.3a28.1 28.1 0 0 0 -28.32 27.96l-1.42 119.14v.37h193.65v-117.74a29.682 29.682 0 0 1 29.63-29.73z" fill="#fff6f3"/><path d="m440.89 58.03v60.49h-59.46v-60.49a29.682 29.682 0 0 1 29.63-29.73h.11a29.674 29.674 0 0 1 29.72 29.63z" fill="#eadfdc"/><path d="m388.61 386.88h29.6v20.45h-29.6z" fill="#4a5160"/><path d="m388.61 347.95h29.6v20.45h-29.6z" fill="#4a5160"/><path d="m388.61 309.03h29.6v20.44h-29.6z" fill="#4a5160"/><path d="m340.49 309.03h29.61v20.44h-29.61z" fill="#4a5160"/><path d="m340.49 347.95h29.61v20.45h-29.61z" fill="#4a5160"/><path d="m340.49 386.88h29.61v20.45h-29.61z" fill="#4a5160"/><path d="m292.37 386.88h29.61v20.45h-29.61z" fill="#4a5160"/><path d="m292.37 347.95h29.61v20.45h-29.61z" fill="#4a5160"/><path d="m292.37 309.03h29.61v20.44h-29.61z" fill="#4a5160"/><path d="m244.25 309.03h29.61v20.44h-29.61z" fill="#4a5160"/><path d="m244.25 347.95h29.61v20.45h-29.61z" fill="#4a5160"/><path d="m244.25 386.88h29.61v20.45h-29.61z" fill="#4a5160"/><path d="m196.14 386.88h29.6v20.45h-29.6z" fill="#4a5160"/><path d="m196.14 347.95h29.6v20.45h-29.6z" fill="#4a5160"/><path d="m196.14 309.03h29.6v20.44h-29.6z" fill="#4a5160"/><path d="m221.36 430.25h123.52v20.44h-123.52z" fill="#4a5160"/><path d="m188.06 175.77h-30a22.1 22.1 0 0 0 -22.1 22.1v13.4h30v-13.4a22.1 22.1 0 0 1 22.1-22.1z" fill="#556077"/><path d="m97.23 211.27h30v59.81h-30z" fill="#7495b2"/><path d="m155.84 469.7v-198.62h-30v198.62a14 14 0 0 0 14 14h30a14 14 0 0 1 -14-14z" fill="#556077"/><path d="m217.78 175.4 1.42-119.14a28.1 28.1 0 0 1 28.32-27.96h-30a28.1 28.1 0 0 0 -28.32 27.96l-1.42 119.14v.37h30z" fill="#eae2df"/><path d="m148.02 309.03h29.61v20.44h-29.61z" fill="#4a5160"/><path d="m148.02 347.95h29.61v20.45h-29.61z" fill="#4a5160"/><path d="m148.02 386.88h29.61v20.45h-29.61z" fill="#4a5160"/><g fill="#284268"><path d="m148.019 374.4h29.606a6 6 0 0 0 6-6v-20.447a6 6 0 0 0 -6-6h-29.606a6 6 0 0 0 -6 6v20.447a6 6 0 0 0 6 6zm6-20.447h17.606v8.447h-17.606z"/><path d="m196.137 374.4h29.606a6 6 0 0 0 6-6v-20.447a6 6 0 0 0 -6-6h-29.606a6 6 0 0 0 -6 6v20.447a6 6 0 0 0 6 6zm6-20.447h17.606v8.447h-17.606z"/><path d="m244.254 374.4h29.606a6 6 0 0 0 6-6v-20.447a6 6 0 0 0 -6-6h-29.606a6 6 0 0 0 -6 6v20.447a6 6 0 0 0 6 6zm6-20.447h17.606v8.447h-17.606z"/><path d="m292.372 374.4h29.606a6 6 0 0 0 6-6v-20.447a6 6 0 0 0 -6-6h-29.606a6 6 0 0 0 -6 6v20.447a6 6 0 0 0 6 6zm6-20.447h17.606v8.447h-17.606z"/><path d="m340.49 374.4h29.61a6 6 0 0 0 6-6v-20.447a6 6 0 0 0 -6-6h-29.61a6 6 0 0 0 -6 6v20.447a6 6 0 0 0 6 6zm6-20.447h17.61v8.447h-17.61z"/><path d="m388.607 374.4h29.606a6 6 0 0 0 6-6v-20.447a6 6 0 0 0 -6-6h-29.606a6 6 0 0 0 -6 6v20.447a6 6 0 0 0 6 6zm6-20.447h17.606v8.447h-17.606z"/><path d="m148.019 335.474h29.606a6 6 0 0 0 6-6v-20.447a6 6 0 0 0 -6-6h-29.606a6 6 0 0 0 -6 6v20.447a6 6 0 0 0 6 6zm6-20.447h17.606v8.447h-17.606z"/><path d="m196.137 335.474h29.606a6 6 0 0 0 6-6v-20.447a6 6 0 0 0 -6-6h-29.606a6 6 0 0 0 -6 6v20.447a6 6 0 0 0 6 6zm6-20.447h17.606v8.447h-17.606z"/><path d="m244.254 335.474h29.606a6 6 0 0 0 6-6v-20.447a6 6 0 0 0 -6-6h-29.606a6 6 0 0 0 -6 6v20.447a6 6 0 0 0 6 6zm6-20.447h17.606v8.447h-17.606z"/><path d="m292.372 335.474h29.606a6 6 0 0 0 6-6v-20.447a6 6 0 0 0 -6-6h-29.606a6 6 0 0 0 -6 6v20.447a6 6 0 0 0 6 6zm6-20.447h17.606v8.447h-17.606z"/><path d="m340.49 335.474h29.61a6 6 0 0 0 6-6v-20.447a6 6 0 0 0 -6-6h-29.61a6 6 0 0 0 -6 6v20.447a6 6 0 0 0 6 6zm6-20.447h17.61v8.447h-17.61z"/><path d="m388.607 335.474h29.606a6 6 0 0 0 6-6v-20.447a6 6 0 0 0 -6-6h-29.606a6 6 0 0 0 -6 6v20.447a6 6 0 0 0 6 6zm6-20.447h17.606v8.447h-17.606z"/><path d="m148.019 413.326h29.606a6 6 0 0 0 6-6v-20.447a6 6 0 0 0 -6-6h-29.606a6 6 0 0 0 -6 6v20.447a6 6 0 0 0 6 6zm6-20.447h17.606v8.447h-17.606z"/><path d="m196.137 413.326h29.606a6 6 0 0 0 6-6v-20.447a6 6 0 0 0 -6-6h-29.606a6 6 0 0 0 -6 6v20.447a6 6 0 0 0 6 6zm6-20.447h17.606v8.447h-17.606z"/><path d="m244.254 413.326h29.606a6 6 0 0 0 6-6v-20.447a6 6 0 0 0 -6-6h-29.606a6 6 0 0 0 -6 6v20.447a6 6 0 0 0 6 6zm6-20.447h17.606v8.447h-17.606z"/><path d="m292.372 413.326h29.606a6 6 0 0 0 6-6v-20.447a6 6 0 0 0 -6-6h-29.606a6 6 0 0 0 -6 6v20.447a6 6 0 0 0 6 6zm6-20.447h17.606v8.447h-17.606z"/><path d="m340.49 413.326h29.61a6 6 0 0 0 6-6v-20.447a6 6 0 0 0 -6-6h-29.61a6 6 0 0 0 -6 6v20.447a6 6 0 0 0 6 6zm6-20.447h17.61v8.447h-17.61z"/><path d="m388.607 413.326h29.606a6 6 0 0 0 6-6v-20.447a6 6 0 0 0 -6-6h-29.606a6 6 0 0 0 -6 6v20.447a6 6 0 0 0 6 6zm6-20.447h17.606v8.447h-17.606z"/><path d="m344.875 424.247h-123.518a6 6 0 0 0 -6 6v20.446a6 6 0 0 0 6 6h123.518a6 6 0 0 0 6-6v-20.446a6 6 0 0 0 -6-6zm-6 20.446h-111.518v-8.446h111.518z"/><path d="m122.669 242.037h6.3a6 6 0 0 0 0-12h-6.3a6 6 0 0 0 0 12z"/><path d="m147.964 242.037h76a6 6 0 0 0 0-12h-76a6 6 0 0 0 0 12z"/><path d="m221.044 137.551h-2.064a6 6 0 1 0 0 12h2.064a6 6 0 1 0 0-12z"/><path d="m253.271 137.551h-11.635a6 6 0 0 0 0 12h11.635a6 6 0 1 0 0-12z"/><path d="m351.663 137.551h-73.509a6 6 0 0 0 0 12h73.509a6 6 0 0 0 0-12z"/><path d="m221.044 101.943h-2.064a6 6 0 0 0 0 12h2.064a6 6 0 0 0 0-12z"/><path d="m253.271 101.943h-11.635a6 6 0 0 0 0 12h11.635a6 6 0 1 0 0-12z"/><path d="m351.663 101.943h-73.509a6 6 0 0 0 0 12h73.509a6 6 0 0 0 0-12z"/><path d="m221.044 66.334h-2.064a6 6 0 1 0 0 12h2.064a6 6 0 1 0 0-12z"/><path d="m253.271 66.334h-11.635a6 6 0 0 0 0 12h11.635a6 6 0 1 0 0-12z"/><path d="m351.663 66.334h-73.509a6 6 0 0 0 0 12h73.509a6 6 0 0 0 0-12z"/><path d="m469 205.272h-32.726v-7.4a28.129 28.129 0 0 0 -28.1-28.1h-20.744v-45.257h53.462a6 6 0 0 0 6-6v-60.593a35.72 35.72 0 0 0 -35.671-35.622h-193.706c-18.921 0-34.315 15.235-34.314 33.889l-1.351 113.585h-23.795a28.129 28.129 0 0 0 -28.1 28.1v7.4h-32.723a6 6 0 0 0 -6 6v9.521h-17.046v-4.087a6 6 0 0 0 -6-6h-25.186a6 6 0 0 0 -6 6v54.419a6 6 0 0 0 6 6h25.186a6 6 0 0 0 6-6v-7.132h17.046v7.085a6 6 0 0 0 6 6h22.613v192.62a20.023 20.023 0 0 0 20 20h286.542a20.022 20.022 0 0 0 20-20v-192.622h22.613a6 6 0 0 0 6-6v-59.806a6 6 0 0 0 -6-6zm-81.57-147.251a23.706 23.706 0 0 1 23.632-23.721h.148a23.729 23.729 0 0 1 23.682 23.731v54.484h-47.462zm-325.244 207.104h-13.186v-42.419h13.186zm29.046-13.132h-17.046v-19.2h17.046zm103.968-195.732a22.166 22.166 0 0 1 22.315-21.961h166.935a35.521 35.521 0 0 0 -9.02 23.731v111.743h-181.579zm239.187 413.439a8.009 8.009 0 0 1 -8 8h-286.542a8.009 8.009 0 0 1 -8-8v-192.622h302.542zm28.613-204.622h-359.768v-47.806h62.768a6 6 0 0 0 6-6 6 6 0 0 0 -6-6h-24.042v-7.4a16.1 16.1 0 0 1 16.1-16.1h250.119a16.1 16.1 0 0 1 16.1 16.1v7.4h-218.277a6 6 0 0 0 -6 6 6 6 0 0 0 6 6h257z"/></g></svg>