<svg height="512" viewBox="0 0 64 64" width="512" xmlns="http://www.w3.org/2000/svg"><g id="speedometer"><circle cx="32" cy="32" fill="#ebe5dd" r="29"/><path d="m61 32a29 29 0 0 1 -51.85 17.85 28.995 28.995 0 0 0 40.7-40.7 28.907 28.907 0 0 1 11.15 22.85z" fill="#d9ccbc"/><path d="m56 32h-8a15.812 15.812 0 0 0 -2.15-7.99l.01-.01 6.91-4h.01a23.82 23.82 0 0 1 3.22 12z" fill="#cd2a00"/><circle cx="52" cy="42" fill="#cd2a00" r="2"/><path d="m52.77 20-6.91 4-.01.01a15.1 15.1 0 0 0 -2.28-3.04l2.43-2.97-2.97 2.43a15.1 15.1 0 0 0 -3.04-2.28l.01-.01 4-6.91a24.1 24.1 0 0 1 8.77 8.77z" fill="#ff3051"/><circle cx="44" cy="42" fill="#ff3051" r="2"/><path d="m44 11.22v.01l-4 6.91-.01.01a15.812 15.812 0 0 0 -7.99-2.15v-8a23.82 23.82 0 0 1 12 3.22z" fill="#ffde55"/><circle cx="32" cy="32" fill="#57a4ff" r="6"/><path d="m46 18-2.43 2.97-6.46 7.92h-.01l-3.69 4.52a1.994 1.994 0 0 1 -2.82-2.82l4.52-3.69v-.01l7.92-6.46z" fill="#898890"/><path d="m25 48h14v8h-14z" fill="#57a4ff"/><path d="m32 8v8a15.812 15.812 0 0 0 -7.99 2.15l-.01-.01-4-6.91v-.01a23.82 23.82 0 0 1 12-3.22z" fill="#ffde55"/><path d="m24 18.14.01.01a15.989 15.989 0 0 0 -5.86 5.86l-.01-.01-6.91-4a24.1 24.1 0 0 1 8.77-8.77z" fill="#00b6bd"/><circle cx="20" cy="42" fill="#ffde55" r="2"/><path d="m18.14 24 .01.01a15.812 15.812 0 0 0 -2.15 7.99h-8a23.82 23.82 0 0 1 3.22-12h.01z" fill="#00b6bd"/><circle cx="12" cy="42" fill="#ffde55" r="2"/><path d="m32 2a30 30 0 1 0 30 30 30.037 30.037 0 0 0 -30-30zm0 58a28 28 0 1 1 28-28 28.031 28.031 0 0 1 -28 28z"/><path d="m39 47h-14a1 1 0 0 0 -1 1v8a1 1 0 0 0 1 1h14a1 1 0 0 0 1-1v-8a1 1 0 0 0 -1-1zm-1 8h-12v-6h12z"/><path d="m32 7a25.022 25.022 0 0 0 -25 25 1 1 0 0 0 1 1h8a1 1 0 0 0 1-1 14.994 14.994 0 0 1 24.49-11.61l-6.49 5.3a7.04 7.04 0 1 0 3.31 3.31l5.3-6.49a14.923 14.923 0 0 1 3.39 9.49 1 1 0 0 0 1 1h8a1 1 0 0 0 1-1 25.022 25.022 0 0 0 -25-25zm-16.97 24h-6.01a22.939 22.939 0 0 1 2.58-9.62l5.22 3.01a16.742 16.742 0 0 0 -1.79 6.61zm2.79-8.34-5.21-3.01a23.066 23.066 0 0 1 7.04-7.04l3 5.2a17.162 17.162 0 0 0 -4.83 4.85zm13.18-7.61a16.883 16.883 0 0 0 -6.61 1.76l-3.01-5.21a22.939 22.939 0 0 1 9.62-2.58zm1 21.95a5 5 0 0 1 0-10 5.416 5.416 0 0 1 1.21.15l-3.26 2.66a.462.462 0 0 0 -.07.07 3 3 0 1 0 4.24 4.24.462.462 0 0 0 .07-.07l2.66-3.26a5.416 5.416 0 0 1 .15 1.21 5 5 0 0 1 -5 5zm.68-4.26a1.041 1.041 0 0 1 -1.39-.03.99.99 0 0 1 -.29-.71 1.014 1.014 0 0 1 .26-.68l7.7-6.28zm.32-17.69v-6.03a22.939 22.939 0 0 1 9.62 2.58l-3.01 5.21a16.883 16.883 0 0 0 -6.61-1.76zm13.18 7.61a16.765 16.765 0 0 0 -1.29-1.72l1.88-2.31a.994.994 0 0 0 -1.4-1.4l-2.32 1.89a17.876 17.876 0 0 0 -1.7-1.31l3-5.2a23.066 23.066 0 0 1 7.04 7.04zm2.79 8.34a16.742 16.742 0 0 0 -1.79-6.61l5.22-3.01a22.939 22.939 0 0 1 2.58 9.62z"/><path d="m44 39a3 3 0 1 0 3 3 3 3 0 0 0 -3-3zm0 4a1 1 0 1 1 1-1 1 1 0 0 1 -1 1z"/><path d="m52 39a3 3 0 1 0 3 3 3 3 0 0 0 -3-3zm0 4a1 1 0 1 1 1-1 1 1 0 0 1 -1 1z"/><path d="m20 39a3 3 0 1 0 3 3 3 3 0 0 0 -3-3zm0 4a1 1 0 1 1 1-1 1 1 0 0 1 -1 1z"/><path d="m12 39a3 3 0 1 0 3 3 3 3 0 0 0 -3-3zm0 4a1 1 0 1 1 1-1 1 1 0 0 1 -1 1z"/><path d="m25 41h2v2h-2z"/><path d="m29 41h5v2h-5z"/><path d="m36 41h2v2h-2z"/></g></svg>